# Blender v2.76 (sub 0) OBJ File: 'october.blend'
# www.blender.org
mtllib october-painting1.mtl
g october-painting1
v -0.350000 -0.250000 0.005094
v 0.350000 -0.250000 0.005094
v -0.350000 0.250000 0.005094
v 0.350000 0.250000 0.005094
v 0.360000 0.260000 0.014049
v -0.360000 0.260000 0.014049
v 0.360000 -0.260000 0.014049
v -0.360000 -0.260000 0.014049
v 0.380000 0.280000 0.014049
v -0.380000 0.280000 0.014049
v 0.380000 -0.280000 0.014049
v -0.380000 -0.280000 0.014049
v -0.350000 -0.250000 0.010000
v 0.350000 -0.250000 0.010000
v -0.350000 0.250000 0.010000
v 0.350000 0.250000 0.010000
v -0.370000 -0.270000 0.016074
v 0.370000 -0.270000 0.016074
v -0.370000 0.270000 0.016073
v 0.370000 0.270000 0.016073
v -0.390000 -0.290000 0.010000
v 0.390000 -0.290000 0.010000
v -0.390000 0.290000 0.010000
v 0.390000 0.290000 0.010000
v -0.350000 -0.250000 0.010000
v 0.350000 -0.250000 0.010000
v -0.350000 0.250000 0.010000
v 0.350000 0.250000 0.010000
v -0.390000 -0.290000 0.010000
v 0.390000 -0.290000 0.010000
v -0.390000 0.290000 0.010000
v 0.390000 0.290000 0.010000
v -0.390000 -0.290000 0.000000
v 0.390000 -0.290000 0.000000
v -0.390000 0.290000 -0.000000
v 0.390000 0.290000 -0.000000
v -0.350000 -0.250000 0.005094
v 0.350000 -0.250000 0.005094
v -0.350000 0.250000 0.005094
v 0.350000 0.250000 0.005094
v -0.390000 -0.290000 0.000000
v 0.390000 -0.290000 0.000000
v -0.390000 0.290000 -0.000000
v 0.390000 0.290000 -0.000000
v -0.350000 -0.250000 0.010000
v 0.350000 -0.250000 0.010000
v -0.350000 0.250000 0.010000
v 0.350000 0.250000 0.010000
v -0.390000 -0.290000 0.010000
v 0.390000 -0.290000 0.010000
v -0.390000 0.290000 0.010000
v 0.390000 0.290000 0.010000
v -0.390000 -0.290000 0.000000
v 0.390000 -0.290000 0.000000
v -0.390000 0.290000 -0.000000
v 0.390000 0.290000 -0.000000
v -0.350000 -0.250000 0.005094
v 0.350000 -0.250000 0.005094
v -0.350000 0.250000 0.005094
v 0.350000 0.250000 0.005094
v 0.360000 0.260000 0.014049
v -0.360000 0.260000 0.014049
v 0.360000 -0.260000 0.014049
v -0.360000 -0.260000 0.014049
v 0.380000 0.280000 0.014049
v -0.380000 0.280000 0.014049
v 0.380000 -0.280000 0.014049
v -0.380000 -0.280000 0.014049
v -0.350000 -0.250000 0.010000
v 0.350000 -0.250000 0.010000
v -0.350000 0.250000 0.010000
v 0.350000 0.250000 0.010000
v -0.370000 -0.270000 0.016074
v 0.370000 -0.270000 0.016074
v -0.370000 0.270000 0.016073
v 0.370000 0.270000 0.016073
v -0.390000 -0.290000 0.010000
v 0.390000 -0.290000 0.010000
v -0.390000 0.290000 0.010000
v 0.390000 0.290000 0.010000
vt 0.153340 0.842145
vt 0.831551 0.842145
vt 0.819858 0.854761
vt 0.165034 0.854762
vt 0.188423 0.878625
vt 0.796472 0.878622
vt 0.784778 0.891238
vt 0.200115 0.891239
vt 0.831551 0.979101
vt 0.153340 0.979102
vt 0.165033 0.966486
vt 0.819857 0.966485
vt 0.796468 0.942622
vt 0.188419 0.942625
vt 0.200113 0.930009
vt 0.784776 0.930008
vt 0.176728 0.866692
vt 0.808165 0.866691
vt 0.176726 0.954555
vt 0.808164 0.954554
vt 0.144234 0.712008
vt 0.144326 0.703158
vt 0.861011 0.703005
vt 0.860918 0.711854
vt 0.902093 0.794428
vt 0.902032 0.807765
vt 0.093575 0.807765
vt 0.093637 0.794428
vt 0.093513 0.649877
vt 0.093575 0.636540
vt 0.902032 0.636540
vt 0.901970 0.649877
vt 0.851373 0.732298
vt 0.851281 0.741147
vt 0.134597 0.741301
vt 0.134689 0.732451
vt 0.902241 0.613926
vt 0.093575 0.613926
vt 0.093575 0.012610
vt 0.902241 0.012610
vt 0.153342 0.830380
vt 0.831554 0.830380
vt 0.831549 0.990867
vt 0.153337 0.990867
vt 0.784720 0.898889
vt 0.200057 0.898891
vt 0.200171 0.922358
vt 0.784834 0.922356
vt 0.103925 0.780541
vt 0.889182 0.780498
vt 0.863068 0.753859
vt 0.124388 0.753991
vt 0.891682 0.663764
vt 0.106425 0.663807
vt 0.132539 0.690446
vt 0.871220 0.690314
vt 0.114172 0.767065
vt 0.875924 0.766973
vt 0.881436 0.677240
vt 0.119682 0.677332
vt 0.009116 0.286735
vt 0.992316 0.286735
vt 0.992316 0.989021
vt 0.009116 0.989021
vn 0.375300 0.000000 0.926900
vn 0.331200 0.000000 0.943500
vn -0.245200 0.000000 0.969500
vn -0.375300 0.000000 0.926900
vn -0.331200 0.000000 0.943500
vn 0.245200 0.000000 0.969500
vn 0.099400 0.000000 0.995000
vn -0.099400 0.000000 0.995000
vn 0.000000 -1.000000 0.000000
vn 0.000000 1.000000 0.000000
vn 0.000000 0.000000 -1.000000
vn 1.000000 0.000000 0.000000
vn -1.000000 0.000000 0.000000
vn 0.000000 0.375300 0.926900
vn 0.000000 0.331200 0.943500
vn 0.000000 -0.245200 0.969500
vn 0.000000 -0.375300 0.926900
vn 0.000000 -0.331200 0.943500
vn 0.000000 0.245200 0.969500
vn 0.000000 0.099400 0.995000
vn 0.000000 -0.099400 0.995000
vn 0.000000 0.000000 1.000000
usemtl wood
s 1
f 22/1/1 24/2/1 9/3/2 11/4/2
f 7/5/3 5/6/3 16/7/4 14/8/4
f 23/9/4 21/10/4 12/11/5 10/12/5
f 6/13/6 8/14/6 13/15/1 15/16/1
f 18/17/7 20/18/7 5/6/3 7/5/3
f 11/4/2 9/3/2 20/18/7 18/17/7
f 10/12/5 12/11/5 17/19/8 19/20/8
f 27/21/9 39/22/9 40/23/9 28/24/9
f 32/25/10 36/26/10 35/27/10 31/28/10
f 29/29/9 33/30/9 34/31/9 30/32/9
f 26/33/10 38/34/10 37/35/10 25/36/10
f 19/20/8 17/19/8 8/14/6 6/13/6
f 43/37/11 44/38/11 42/39/11 41/40/11
f 50/1/12 54/41/12 56/42/12 52/2/12
f 51/9/13 55/43/13 53/44/13 49/10/13
f 48/7/13 60/45/13 58/46/13 46/8/13
f 45/15/12 57/47/12 59/48/12 47/16/12
f 80/25/14 79/28/14 66/49/15 65/50/15
f 61/51/16 62/52/16 71/35/17 72/34/17
f 77/29/17 78/32/17 67/53/18 68/54/18
f 64/55/19 63/56/19 70/23/14 69/22/14
f 65/50/15 66/49/15 75/57/20 76/58/20
f 76/58/20 75/57/20 62/52/16 61/51/16
f 68/54/18 67/53/18 74/59/21 73/60/21
f 73/60/21 74/59/21 63/56/19 64/55/19
usemtl picture03
f 1/61/22 2/62/22 4/63/22 3/64/22
